<svg width="72" height="72" viewBox="0 0 72 72" fill="none" xmlns="http://www.w3.org/2000/svg">
<circle cx="36" cy="36" r="36" fill="#6B77E5"/>
<path d="M25.2503 50.7811C24.8939 50.7811 24.5521 50.6395 24.3001 50.3875C24.0481 50.1355 23.9065 49.7937 23.9065 49.4373V42.265C23.1693 42.6167 22.3523 42.7674 21.5382 42.7018C20.8488 42.6511 20.1791 42.4491 19.5767 42.1102C18.9743 41.7713 18.454 41.3037 18.0528 40.7408C17.6517 40.178 17.3795 39.5336 17.2557 38.8535C17.1319 38.1735 17.1596 37.4745 17.3367 36.8064C17.5137 36.1382 17.8359 35.5173 18.2803 34.9879C18.7246 34.4584 19.2802 34.0334 19.9075 33.7431C20.5348 33.4528 21.2184 33.3043 21.9096 33.3082C22.6008 33.3122 23.2826 33.4684 23.9065 33.7658V26.5936C23.9065 26.2372 24.0481 25.8954 24.3001 25.6434C24.5521 25.3914 24.8939 25.2498 25.2503 25.2498H33.0944C32.7428 24.5126 32.5921 23.6956 32.6577 22.8814C32.7084 22.1921 32.9103 21.5224 33.2493 20.92C33.5882 20.3175 34.0557 19.7972 34.6186 19.3961C35.1815 18.9949 35.8259 18.7228 36.506 18.599C37.186 18.4752 37.885 18.5028 38.5531 18.6799C39.2212 18.857 39.8421 19.1792 40.3716 19.6235C40.9011 20.0679 41.3261 20.6235 41.6164 21.2508C41.9067 21.878 42.0552 22.5616 42.0512 23.2528C42.0473 23.944 41.8911 24.6259 41.5937 25.2498H49.4378C49.7942 25.2498 50.136 25.3914 50.388 25.6434C50.64 25.8954 50.7815 26.2372 50.7815 26.5936V33.7658C50.0443 33.4142 49.2273 33.2635 48.4132 33.3291C47.7238 33.3798 47.0541 33.5817 46.4517 33.9207C45.8493 34.2596 45.329 34.7271 44.9278 35.29C44.5267 35.8529 44.2545 36.4973 44.1307 37.1773C44.0069 37.8574 44.0346 38.5563 44.2117 39.2245C44.3887 39.8926 44.7109 40.5135 45.1553 41.043C45.5996 41.5725 46.1552 41.9975 46.7825 42.2878C47.4098 42.5781 48.0934 42.7266 48.7846 42.7226C49.4758 42.7187 50.1576 42.5625 50.7815 42.265V49.4373C50.7815 49.7937 50.64 50.1355 50.388 50.3875C50.136 50.6395 49.7942 50.7811 49.4378 50.7811H25.2503Z" stroke="white" stroke-width="2" stroke-linecap="round" stroke-linejoin="round"/>
</svg>
