<svg width="72" height="72" viewBox="0 0 72 72" fill="none" xmlns="http://www.w3.org/2000/svg">
<circle cx="36" cy="36" r="36" fill="#40DDB6"/>
<path d="M49.4375 21.2188H22.5625C21.8204 21.2188 21.2188 21.8204 21.2188 22.5625V49.4375C21.2188 50.1796 21.8204 50.7812 22.5625 50.7812H49.4375C50.1796 50.7812 50.7812 50.1796 50.7812 49.4375V22.5625C50.7812 21.8204 50.1796 21.2188 49.4375 21.2188Z" stroke="white" stroke-width="2" stroke-linecap="round" stroke-linejoin="round"/>
<path d="M44.0625 18.5312V23.9062" stroke="white" stroke-width="2" stroke-linecap="round" stroke-linejoin="round"/>
<path d="M27.9375 18.5312V23.9062" stroke="white" stroke-width="2" stroke-linecap="round" stroke-linejoin="round"/>
<path d="M21.2188 29.2812H50.7812" stroke="white" stroke-width="2" stroke-linecap="round" stroke-linejoin="round"/>
<path d="M29.9531 36H34.6562L31.9688 39.3594C32.411 39.3586 32.8467 39.467 33.237 39.675C33.6274 39.883 33.9604 40.1841 34.2065 40.5516C34.4525 40.9191 34.6041 41.3417 34.6477 41.7818C34.6914 42.2219 34.6257 42.666 34.4565 43.0747C34.2874 43.4834 34.02 43.844 33.678 44.1245C33.3361 44.4051 32.9302 44.5969 32.4964 44.683C32.0626 44.7691 31.6142 44.7467 31.191 44.618C30.7679 44.4892 30.3831 44.2581 30.0707 43.9449" stroke="white" stroke-width="2" stroke-linecap="round" stroke-linejoin="round"/>
<path d="M38.6875 38.0156L41.375 36V44.7344" stroke="white" stroke-width="2" stroke-linecap="round" stroke-linejoin="round"/>
</svg>
