<svg width="200" height="39" viewBox="0 0 200 39" fill="none" xmlns="http://www.w3.org/2000/svg">
<path d="M71.7 10.95L67.125 28.5H61.95L59.15 16.95L56.25 28.5H51.075L46.625 10.95H51.2L53.725 23.725L56.85 10.95H61.55L64.55 23.725L67.1 10.95H71.7ZM82.4189 14.4C84.0189 14.4 85.3023 14.9333 86.2689 16C87.2356 17.05 87.7189 18.5 87.7189 20.35V28.5H83.4689V20.925C83.4689 19.9917 83.2273 19.2667 82.7439 18.75C82.2606 18.2333 81.6106 17.975 80.7939 17.975C79.9773 17.975 79.3273 18.2333 78.8439 18.75C78.3606 19.2667 78.1189 19.9917 78.1189 20.925V28.5H73.8439V10H78.1189V16.425C78.5523 15.8083 79.1439 15.3167 79.8939 14.95C80.6439 14.5833 81.4856 14.4 82.4189 14.4ZM92.8396 13.1C92.0896 13.1 91.473 12.8833 90.9896 12.45C90.523 12 90.2896 11.45 90.2896 10.8C90.2896 10.1333 90.523 9.58333 90.9896 9.15C91.473 8.7 92.0896 8.475 92.8396 8.475C93.573 8.475 94.173 8.7 94.6396 9.15C95.123 9.58333 95.3646 10.1333 95.3646 10.8C95.3646 11.45 95.123 12 94.6396 12.45C94.173 12.8833 93.573 13.1 92.8396 13.1ZM94.9646 14.55V28.5H90.6896V14.55H94.9646ZM105.838 24.875V28.5H103.663C102.113 28.5 100.904 28.125 100.038 27.375C99.171 26.6083 98.7377 25.3667 98.7377 23.65V18.1H97.0377V14.55H98.7377V11.15H103.013V14.55H105.813V18.1H103.013V23.7C103.013 24.1167 103.113 24.4167 103.313 24.6C103.513 24.7833 103.846 24.875 104.313 24.875H105.838ZM121.369 21.3C121.369 21.7 121.344 22.1167 121.294 22.55H111.619C111.686 23.4167 111.961 24.0833 112.444 24.55C112.944 25 113.552 25.225 114.269 25.225C115.336 25.225 116.077 24.775 116.494 23.875H121.044C120.811 24.7917 120.386 25.6167 119.769 26.35C119.169 27.0833 118.411 27.6583 117.494 28.075C116.577 28.4917 115.552 28.7 114.419 28.7C113.052 28.7 111.836 28.4083 110.769 27.825C109.702 27.2417 108.869 26.4083 108.269 25.325C107.669 24.2417 107.369 22.975 107.369 21.525C107.369 20.075 107.661 18.8083 108.244 17.725C108.844 16.6417 109.677 15.8083 110.744 15.225C111.811 14.6417 113.036 14.35 114.419 14.35C115.769 14.35 116.969 14.6333 118.019 15.2C119.069 15.7667 119.886 16.575 120.469 17.625C121.069 18.675 121.369 19.9 121.369 21.3ZM116.994 20.175C116.994 19.4417 116.744 18.8583 116.244 18.425C115.744 17.9917 115.119 17.775 114.369 17.775C113.652 17.775 113.044 17.9833 112.544 18.4C112.061 18.8167 111.761 19.4083 111.644 20.175H116.994ZM122.899 19.7C122.899 17.9667 123.274 16.425 124.024 15.075C124.774 13.7083 125.816 12.65 127.149 11.9C128.499 11.1333 130.024 10.75 131.724 10.75C133.808 10.75 135.591 11.3 137.074 12.4C138.558 13.5 139.549 15 140.049 16.9H135.349C134.999 16.1667 134.499 15.6083 133.849 15.225C133.216 14.8417 132.491 14.65 131.674 14.65C130.358 14.65 129.291 15.1083 128.474 16.025C127.658 16.9417 127.249 18.1667 127.249 19.7C127.249 21.2333 127.658 22.4583 128.474 23.375C129.291 24.2917 130.358 24.75 131.674 24.75C132.491 24.75 133.216 24.5583 133.849 24.175C134.499 23.7917 134.999 23.2333 135.349 22.5H140.049C139.549 24.4 138.558 25.9 137.074 27C135.591 28.0833 133.808 28.625 131.724 28.625C130.024 28.625 128.499 28.25 127.149 27.5C125.816 26.7333 124.774 25.675 124.024 24.325C123.274 22.975 122.899 21.4333 122.899 19.7ZM149.017 28.7C147.651 28.7 146.417 28.4083 145.317 27.825C144.234 27.2417 143.376 26.4083 142.742 25.325C142.126 24.2417 141.817 22.975 141.817 21.525C141.817 20.0917 142.134 18.8333 142.767 17.75C143.401 16.65 144.267 15.8083 145.367 15.225C146.467 14.6417 147.701 14.35 149.067 14.35C150.434 14.35 151.667 14.6417 152.767 15.225C153.867 15.8083 154.734 16.65 155.367 17.75C156.001 18.8333 156.317 20.0917 156.317 21.525C156.317 22.9583 155.992 24.225 155.342 25.325C154.709 26.4083 153.834 27.2417 152.717 27.825C151.617 28.4083 150.384 28.7 149.017 28.7ZM149.017 25C149.834 25 150.526 24.7 151.092 24.1C151.676 23.5 151.967 22.6417 151.967 21.525C151.967 20.4083 151.684 19.55 151.117 18.95C150.567 18.35 149.884 18.05 149.067 18.05C148.234 18.05 147.542 18.35 146.992 18.95C146.442 19.5333 146.167 20.3917 146.167 21.525C146.167 22.6417 146.434 23.5 146.967 24.1C147.517 24.7 148.201 25 149.017 25ZM172.481 21.5C172.481 20.0667 172.748 18.8083 173.281 17.725C173.831 16.6417 174.573 15.8083 175.506 15.225C176.44 14.6417 177.481 14.35 178.631 14.35C179.615 14.35 180.473 14.55 181.206 14.95C181.956 15.35 182.531 15.875 182.931 16.525V14.55H187.206V28.5H182.931V26.525C182.515 27.175 181.931 27.7 181.181 28.1C180.448 28.5 179.59 28.7 178.606 28.7C177.473 28.7 176.44 28.4083 175.506 27.825C174.573 27.225 173.831 26.3833 173.281 25.3C172.748 24.2 172.481 22.9333 172.481 21.5ZM182.931 21.525C182.931 20.4583 182.631 19.6167 182.031 19C181.448 18.3833 180.731 18.075 179.881 18.075C179.031 18.075 178.306 18.3833 177.706 19C177.123 19.6 176.831 20.4333 176.831 21.5C176.831 22.5667 177.123 23.4167 177.706 24.05C178.306 24.6667 179.031 24.975 179.881 24.975C180.731 24.975 181.448 24.6667 182.031 24.05C182.631 23.4333 182.931 22.5917 182.931 21.525ZM194.574 16.875C195.074 16.1083 195.699 15.5083 196.449 15.075C197.199 14.625 198.032 14.4 198.949 14.4V18.925H197.774C196.707 18.925 195.907 19.1583 195.374 19.625C194.841 20.075 194.574 20.875 194.574 22.025V28.5H190.299V14.55H194.574V16.875Z" fill="#37393F"/>
<path d="M162.86 10V28.5H158.585V10H162.86ZM170.233 10V28.5H165.958V10H170.233Z" fill="#6B77E5"/>
<path d="M14.3756 6.5H8.49649L25.2608 35.5L28.2003 30.4152L14.3756 6.5Z" fill="#40DDB6"/>
<path d="M5.8791 6.5H0L16.5506 35.1299L19.4084 29.9051L5.8791 6.5Z" fill="#40DDB6"/>
<path d="M32.5307 23.1948L36.3049 16.6629H30.4274L29.5911 18.11L25.433 10.9196H39.62L42.1706 6.5H17L29.5945 28.2863L32.5324 23.1981L32.5307 23.1948Z" fill="#6B77E5"/>
</svg>
