<svg width="65" height="65" viewBox="0 0 65 65" fill="none" xmlns="http://www.w3.org/2000/svg">
<path d="M64.75 32.25C64.75 14.4453 50.3047 0 32.5 0C14.6953 0 0.25 14.4453 0.25 32.25C0.25 50.0547 14.6953 64.5 32.5 64.5C50.3047 64.5 64.75 50.0547 64.75 32.25Z" fill="#6B77E5"/>
<path d="M27.7369 46.7675L42.7012 34.316C43.0044 34.0638 43.2483 33.7479 43.4157 33.3909C43.5831 33.0338 43.6699 32.6443 43.6699 32.25C43.6699 31.8556 43.5831 31.4661 43.4157 31.109C43.2483 30.752 43.0044 30.4362 42.7012 30.1839L27.7369 17.7324C27.3444 17.4061 26.8672 17.1983 26.361 17.1332C25.8547 17.0682 25.3405 17.1487 24.8783 17.3652C24.4161 17.5818 24.0252 17.9254 23.7512 18.356C23.4772 18.7867 23.3314 19.2864 23.3311 19.7968V44.7032C23.3314 45.2136 23.4772 45.7133 23.7512 46.1439C24.0252 46.5745 24.4161 46.9182 24.8783 47.1347C25.3405 47.3513 25.8547 47.4317 26.361 47.3667C26.8672 47.3017 27.3444 47.0938 27.7369 46.7675Z" fill="white"/>
</svg>
